<svg width="162" height="283" viewBox="0 0 162 283" fill="none" xmlns="http://www.w3.org/2000/svg">
<path opacity="0.7" d="M54.7325 27.6908C57.3424 25.2127 64.6468 25.4744 66.474 25.9955C68.3012 26.5166 69.7349 28.8649 71.6918 29.386C73.6487 29.9071 76.3884 31.6046 77.5626 33.5637C78.7367 35.5229 82.4219 41.3914 81.4259 45.3053C80.4298 49.2192 77.6879 56.5192 72.2129 61.2202C66.7379 65.9212 58.908 72.8298 56.5597 79.2217C54.2114 85.6136 47.6897 96.9638 47.5578 98.9207C47.4259 100.878 46.5156 101.399 49.9061 102.439C53.2967 103.479 61.12 107.135 63.6046 107.135C66.0893 107.135 67.9099 108.05 69.3435 108.963C70.7771 109.875 78.2464 111.179 81.4259 109.484C84.6053 107.788 89.0997 103.441 90.984 101.856C92.8684 100.271 103.48 93.9229 106.255 93.327C109.03 92.7311 116.072 89.4593 115.973 87.1704C115.874 84.8814 115.481 75.8664 115.973 72.6913C116.466 69.5162 120.929 61.7831 120.929 60.4946C120.929 59.2061 119.344 54.9426 117.062 51.2728C114.779 47.603 111.51 43.2406 110.219 40.2657C108.928 37.2907 106.754 28.4801 104.57 26.886C102.387 25.2919 92.0746 19.0517 89.7945 18.458C87.5143 17.8643 86.8195 17.2685 87.5121 15.7799C88.2047 14.2913 91.6898 9.73099 95.3464 7.15181C99.003 4.57262 105.654 1.30301 109.924 0.608193C114.195 -0.0866264 116.371 0.0123194 116.866 0.608193C117.361 1.20407 121.228 9.5331 121.824 12.209C122.42 14.885 122.618 22.5214 123.212 24.9005C123.805 27.2796 131.347 39.8743 132.535 41.2639C133.722 42.6536 139.872 51.8731 140.369 54.1555C140.866 56.4378 142.649 69.4261 142.649 71.9063C142.649 74.3866 143.749 75.6729 143.749 77.2604C143.749 78.8479 142.154 80.7345 142.154 83.0102C142.154 85.286 143.254 87.2737 142.649 89.655C142.044 92.0363 140.468 91.9352 140.567 94.0174C140.666 96.0997 142.748 101.654 143.74 105.522C144.731 109.389 145.028 115.04 145.228 118.512C145.428 121.984 147.805 126.245 147.805 128.228C147.805 130.212 147.11 138.444 147.805 142.708C148.5 146.971 149.393 177.712 147.805 184.555C146.218 191.398 145.233 189.815 145.327 193.39C145.422 196.965 149.987 202.911 150.187 205.092C150.387 207.273 151.871 217.486 151.871 219.769C151.871 222.051 151.574 225.818 153.557 230.776C155.541 235.734 159.804 246.741 159.804 249.318C159.804 251.895 159.01 255.268 159.804 256.658C160.598 258.048 161.688 260.227 161.688 262.608C161.688 264.989 159.903 269.053 158.911 269.451C157.92 269.848 141.954 265.273 138.087 263.103C134.219 260.932 116.866 257.449 115.279 257.351C113.691 257.252 94.6538 258.542 92.8684 258.243C91.083 257.944 87.2153 254.873 84.6383 254.475C82.0613 254.077 67.7801 253.186 66.5884 252.79C65.3966 252.394 64.4072 253.584 62.4239 253.087C60.4406 252.59 58.0615 260.029 54.4906 261.223C50.9198 262.417 37.2367 278.973 35.9482 281.452C34.6597 283.93 31.5836 280.26 28.912 279.864C26.2405 279.468 23.459 276.691 21.0799 272.228C18.7008 267.764 13.0477 257.85 12.155 253.883C11.2623 249.916 6.07532 220.461 7.9355 201.539C9.79568 182.616 9.17563 184.168 6.07532 178.904C2.97502 173.64 -0.127478 173.944 0.798215 166.501C1.72391 159.058 4.21075 159.06 2.34837 147.591C0.48599 136.122 3.27845 125.577 7.00102 119.066C10.7236 112.555 13.5095 97.0408 15.6797 90.5301C17.8499 84.0195 34.9037 51.772 39.5542 45.2591C44.2046 38.7463 54.7325 27.6908 54.7325 27.6908Z" fill="white" stroke="white" stroke-width="0.10545" stroke-miterlimit="10"/>
<path d="M146.619 143.387C146.619 143.387 126.227 154.744 121.553 161.756C116.878 168.768 117.344 170.17 121.553 184.663C125.761 199.155 124.825 216.919 123.422 225.8C122.019 234.681 123.905 242.161 133.013 247.773C142.12 253.384 147.806 266.702 147.806 266.702C147.806 266.702 155.828 268.652 157.824 268.976C159.821 269.299 161.144 262.986 161.023 262.362C160.669 260.495 159.126 258.184 159.211 255.451C159.297 252.718 159.088 252.702 159.062 249.074C159.036 245.446 152.857 231.871 152.466 230.648C152.074 229.426 150.979 216.33 150.438 212.159C149.897 207.988 150.878 205.219 148.033 201.648C145.188 198.078 143.31 191.411 144.965 189.652C146.621 187.893 147.573 181.499 147.688 176.041C147.802 170.584 148.152 149.194 146.619 143.387Z" fill="#BCBBBB"/>
<path d="M28.9898 111.814C28.9898 111.814 35.0805 123.998 41.8484 126.705C48.6163 129.411 64.6873 133.363 75.9385 140.179C87.1898 146.995 90.334 164.597 96.8821 172.042C103.43 179.487 101.5 178.132 109.239 184.9C116.979 191.668 101.478 187.803 89.7777 175.766C78.078 163.73 81.4223 153.697 72.3919 151.692C63.3614 149.686 40.2895 147.074 36.2789 140.185C32.2682 133.297 27.7189 120.095 28.9898 111.814Z" fill="#BCBBBB"/>
<path d="M12.1492 253.876C12.1492 253.876 30.1023 247.561 34.5109 243.153C38.9195 238.744 38.416 229.685 43.7986 226.002C49.1813 222.319 60.5095 220.336 63.9154 220.336C67.3213 220.336 52.0155 223.168 51.4504 226.002C50.8854 228.836 47.2002 234.784 46.6329 241.869C46.0656 248.953 36.4327 254.901 32.1824 258.58C27.9321 262.258 21.0741 272.212 21.0741 272.212C21.0741 272.212 13.3849 260.688 12.1492 253.876Z" fill="#BCBBBB"/>
<path d="M64.408 181.683C64.408 181.683 90.1867 192.97 93.9488 200.494C97.711 208.018 101.071 210.527 96.882 216.798C92.6933 223.069 75.4855 223.696 75.9385 228.713C76.3914 233.731 66.8091 238.727 64.408 240.279C62.0069 241.831 70.3227 234.848 70.0435 228.256C69.7643 221.664 77.9108 217.009 83.7266 213.905C89.5424 210.8 88.3815 205.769 87.2183 203.434C86.0551 201.099 68.7484 182.04 64.408 181.683Z" fill="#BCBBBB"/>
<path d="M76.4113 33.5615C76.4113 33.5615 79.3445 41.4529 72.5195 49.7512C65.6944 58.0494 52.6182 64.8635 49.8939 70.2264C47.1696 75.5892 38.392 91.1897 38.392 97.0517C38.392 102.914 46.1933 111.979 53.0184 111.828C59.8434 111.676 73.8234 111.808 75.0987 111.828C76.374 111.847 67.4579 109.026 63.135 108.213C58.8122 107.399 47.3872 102.854 46.7936 101.638C46.1999 100.422 46.9673 97.0209 48.0997 94.7144C49.232 92.4078 53.8429 84.2437 55.0896 80.0352C56.3363 75.8267 62.7986 68.7312 64.3378 67.2668C65.8769 65.8024 70.2305 62.5746 72.5195 59.8393C74.8084 57.104 78.0956 52.5415 79.2412 48.6122C80.3868 44.683 80.5605 46.3848 80.2526 42.1016C79.9448 37.8183 77.4492 34.8719 76.4113 33.5615Z" fill="#BCBBBB"/>
<path d="M88.0342 17.7059C88.0342 17.7059 105.468 5.30693 111.924 7.15172C118.38 8.99651 117.287 16.9957 119.488 24.7025C121.689 32.4093 129.759 43.8452 132.701 49.351C135.643 54.8568 141.472 65.2835 140.572 73.098C139.673 80.9125 137.34 88.2213 137.872 90.8533C138.404 93.4852 142.05 91.3502 142.072 88.2785C142.094 85.2068 141.599 84.9429 142.019 81.8272C142.424 78.8061 144.334 79.1249 142.881 74.5712C141.428 70.0175 141.139 61.7984 140.612 58.6475C140.084 55.4966 135.799 46.5541 131.482 40.8021C127.843 35.9647 122.907 26.9783 122.687 24.5684C122.467 22.1585 121.047 9.9266 119.758 7.03518C118.47 4.14376 117.927 2.09449 116.075 1.61955C114.224 1.14461 103.542 1.04786 97.1482 6.76473C90.7541 12.4816 88.8191 13.2358 88.0342 17.7059Z" fill="#BCBBBB"/>
<path d="M51.0521 70.2264C51.0521 70.2264 38.5189 92.8344 39.5502 97.0517C40.5814 101.269 45.6277 112.298 54.1766 111.814C62.7255 111.331 55.7817 112.885 52.965 113.061C50.1484 113.237 43.0199 108.479 40.9068 104.607C38.7938 100.735 38.1298 97.8565 38.4882 94.8859C38.8466 91.9153 42.9847 82.5331 44.7371 79.1667C45.8981 76.9283 48.7367 71.4643 51.0521 70.2264Z" fill="white"/>
<path d="M45.0406 127.866C45.0406 127.866 65.5708 131.397 70.9864 134.022C76.4021 136.648 86.0944 144.313 87.4334 148.497C88.7725 152.681 89.2694 158.172 89.8037 159.317C90.338 160.463 87.5719 153.198 84.3067 148.853C81.0415 144.508 78.4689 141.333 74.0186 139.08C69.5682 136.826 63.2907 134.115 61.3931 133.415C59.4955 132.716 45.0406 127.866 45.0406 127.866Z" fill="white"/>
<path d="M135.798 150.019C135.798 150.019 123.553 158.464 121.552 161.756C119.551 165.047 117.594 168.28 118.219 171.558C118.843 174.836 118.546 168.726 120.782 166.041C123.019 163.357 125.255 159.929 128.832 157.686C132.41 155.443 135.798 150.019 135.798 150.019Z" fill="white"/>
<path d="M124.41 216.11C124.41 216.11 121.939 231.218 123.507 235.488C125.075 239.758 128.747 246.922 134.721 248.947C140.695 250.972 147.797 266.702 147.797 266.702L152.905 268.188C152.905 268.188 152.489 263.311 146.772 255.983C141.055 248.654 133.089 244.226 130.703 242.15C128.318 240.075 124.815 238.48 124.815 233.232C124.815 227.983 124.41 216.11 124.41 216.11Z" fill="white"/>
<path d="M0.822632 170.984C0.822632 170.984 15.4182 178.117 16.544 185.995C17.6698 193.874 17.2938 212.249 14.2924 222.75C11.2911 233.252 10.2819 243.241 10.7854 246.277C11.2889 249.314 8.30953 229.105 7.95112 221.954C7.59272 214.804 7.46079 207.414 8.14901 199.267C8.83724 191.121 9.74094 184.463 6.91989 180.294C4.09883 176.125 0.991939 173.821 0.822632 170.984Z" fill="white"/>
</svg>
